<?xml version="1.0" standalone="no"?>
<!DOCTYPE svg PUBLIC "-//W3C//DTD SVG 20010904//EN"
 "http://www.w3.org/TR/2001/REC-SVG-20010904/DTD/svg10.dtd">
<svg version="1.0" xmlns="http://www.w3.org/2000/svg"
 width="512.000000pt" height="512.000000pt" viewBox="0 0 512.000000 512.000000"
 preserveAspectRatio="xMidYMid meet">

<g transform="translate(0.000000,512.000000) scale(0.100000,-0.100000)"
fill="#000000" stroke="none">
<path d="M0 2560 l0 -2560 2560 0 2560 0 0 2560 0 2560 -2560 0 -2560 0 0
-2560z m2983 1612 c169 -49 252 -87 349 -159 103 -78 196 -171 248 -248 18
-27 41 -59 51 -70 34 -38 139 -334 139 -392 0 -12 -17 -1 -57 39 -107 103
-275 206 -423 258 -36 13 -69 26 -75 30 -15 10 -175 47 -285 66 -73 13 -205
18 -570 23 -457 7 -478 8 -545 30 -188 62 -338 183 -419 341 -25 48 -46 93
-46 99 0 9 206 11 778 9 773 -3 777 -4 855 -26z m278 -661 c136 -48 241 -110
336 -199 178 -165 219 -408 119 -706 -26 -78 -72 -177 -86 -186 -4 -3 -25 -34
-46 -70 -49 -85 -189 -224 -284 -282 -75 -46 -221 -106 -315 -129 -27 -6 -55
-15 -60 -20 -27 -21 -212 -29 -647 -29 l-468 0 0 576 0 577 76 -7 c134 -12
242 -67 320 -163 72 -89 103 -206 104 -397 l0 -89 243 6 c263 6 315 15 423 67
124 61 238 192 280 324 34 110 47 247 34 371 -11 100 -45 218 -74 258 -31 42
-86 127 -86 132 0 10 21 4 131 -34z m-150 -2045 c51 -9 117 -60 136 -104 20
-48 19 -137 -2 -189 -24 -60 -111 -123 -179 -130 -73 -7 -125 10 -173 57 -96
96 -78 277 34 342 33 20 107 38 133 33 8 -2 31 -6 51 -9z m725 -1 c37 -7 80
-49 89 -86 6 -26 5 -27 -45 -34 -40 -6 -55 -4 -69 9 -26 23 -71 21 -71 -3 0
-15 15 -24 65 -41 36 -12 79 -33 95 -47 26 -21 30 -32 30 -74 0 -40 -5 -54
-32 -85 -38 -43 -82 -64 -135 -64 -46 0 -113 18 -113 30 0 5 -9 12 -20 15 -22
7 -50 53 -50 83 0 16 10 20 55 26 49 5 56 4 79 -19 25 -25 50 -31 80 -19 32
12 14 33 -46 53 -119 40 -156 78 -144 150 6 39 28 66 71 89 34 17 92 31 115
26 8 -1 29 -5 46 -9z m-2368 -9 c29 -8 64 -22 78 -31 79 -52 96 -198 33 -287
-12 -16 -44 -42 -72 -58 -50 -29 -57 -30 -174 -30 l-123 0 0 210 0 210 103 0
c56 0 126 -7 155 -14z m372 -196 l0 -210 -60 0 -60 0 0 210 0 210 60 0 60 0 0
-210z m464 163 c-3 -27 -8 -51 -11 -55 -2 -5 -29 -8 -59 -8 l-54 0 0 -155 0
-155 -65 0 -65 0 0 155 0 155 -60 0 -60 0 0 55 0 55 191 0 190 0 -7 -47z m319
33 c52 -19 75 -42 88 -88 13 -51 -3 -101 -41 -130 l-29 -21 21 -29 c17 -24 26
-29 55 -26 32 2 36 -1 53 -37 11 -22 19 -45 20 -52 0 -18 -68 -36 -117 -30
-52 6 -73 23 -122 97 l-36 55 -3 -72 -3 -73 -59 0 -60 0 0 210 0 210 98 0 c55
-1 113 -7 135 -14z m867 -196 l0 -210 -60 0 -60 0 0 210 0 210 60 0 60 0 0
-210z"/>
<path d="M3015 1361 c-40 -17 -60 -51 -60 -101 0 -64 31 -100 86 -100 83 0
122 118 60 181 -30 30 -50 34 -86 20z"/>
<path d="M1340 1259 l0 -101 48 7 c51 7 76 25 98 67 13 25 12 32 -6 68 -22 44
-51 60 -106 60 l-34 0 0 -101z"/>
<path d="M2510 1334 c0 -35 1 -35 38 -32 30 2 38 7 40 27 4 28 -12 41 -50 41
-25 0 -28 -3 -28 -36z"/>
</g>
</svg>
